HIERARCHY
ROOT joint_Root
{
	OFFSET 0.0 0.0 0.0
	CHANNELS 6 Xposition Yposition Zposition Zrotation Xrotation Yrotation 
	JOINT Hips
	{
		OFFSET -0.726466 93.3139 -2.00062
		CHANNELS 6 Xposition Yposition Zposition Zrotation Xrotation Yrotation 
		JOINT Spine
		{
			OFFSET 15.7357 0.0 0.0
			CHANNELS 6 Xposition Yposition Zposition Zrotation Xrotation Yrotation 
			JOINT Chest
			{
				OFFSET 8.98455 -0.406207 0.0
				CHANNELS 6 Xposition Yposition Zposition Zrotation Xrotation Yrotation 
				JOINT Neck
				{
					OFFSET 16.3773 0.0 0.0
					CHANNELS 6 Xposition Yposition Zposition Zrotation Xrotation Yrotation 
					JOINT Head
					{
						OFFSET 6.45672 0.0 0.0
						CHANNELS 6 Xposition Yposition Zposition Zrotation Xrotation Yrotation 
						End Site
						{
							OFFSET 0.0 0.0 0.0
						}
					}
				}
				JOINT Shoulder_L
				{
					OFFSET 12.9942 -0.242716 4.98039
					CHANNELS 6 Xposition Yposition Zposition Zrotation Xrotation Yrotation 
					JOINT UpperArm_L
					{
						OFFSET 5.34809 0.0 0.0
						CHANNELS 6 Xposition Yposition Zposition Zrotation Xrotation Yrotation 
						JOINT LowerArm_L
						{
							OFFSET 24.3286 1.87007e-05 0.0
							CHANNELS 6 Xposition Yposition Zposition Zrotation Xrotation Yrotation 
							JOINT Hand_L
							{
								OFFSET 22.2916 0.0 0.0
								CHANNELS 6 Xposition Yposition Zposition Zrotation Xrotation Yrotation 
								End Site
								{
									OFFSET 0.0 0.0 0.0
								}
							}
						}
					}
				}
				JOINT Shoulder_R
				{
					OFFSET 12.9945 -0.242716 -4.98039
					CHANNELS 6 Xposition Yposition Zposition Zrotation Xrotation Yrotation 
					JOINT UpperArm_R
					{
						OFFSET -5.34813 0.0 0.0
						CHANNELS 6 Xposition Yposition Zposition Zrotation Xrotation Yrotation 
						JOINT LowerArm_R
						{
							OFFSET -24.3289 0.000322201 0.0
							CHANNELS 6 Xposition Yposition Zposition Zrotation Xrotation Yrotation 
							JOINT Hand_R
							{
								OFFSET -22.2915 -0.000108084 0.0
								CHANNELS 6 Xposition Yposition Zposition Zrotation Xrotation Yrotation 
								End Site
								{
									OFFSET 0.0 0.0 0.0
								}
							}
						}
					}
				}
			}
		}
		JOINT UpperLeg_L
		{
			OFFSET -2.19248 -6.46944 0.0
			CHANNELS 6 Xposition Yposition Zposition Zrotation Xrotation Yrotation 
			JOINT LowerLeg_L
			{
				OFFSET 39.0811 0.0 -1.23785e-05
				CHANNELS 6 Xposition Yposition Zposition Zrotation Xrotation Yrotation 
				JOINT Foot_L
				{
					OFFSET 40.9854 0.0 -1.26872e-05
					CHANNELS 6 Xposition Yposition Zposition Zrotation Xrotation Yrotation 
					JOINT Toes_L
					{
						OFFSET 11.7543 0.0 0.0
						CHANNELS 6 Xposition Yposition Zposition Zrotation Xrotation Yrotation 
						End Site
						{
							OFFSET 0.0 0.0 0.0
						}
					}
				}
			}
		}
		JOINT UpperLeg_R
		{
			OFFSET -2.19251 6.46944 0.0
			CHANNELS 6 Xposition Yposition Zposition Zrotation Xrotation Yrotation 
			JOINT LowerLeg_R
			{
				OFFSET -39.0811 -0.00228153 -0.0401928
				CHANNELS 6 Xposition Yposition Zposition Zrotation Xrotation Yrotation 
				JOINT Foot_R
				{
					OFFSET -40.9854 0.0 0.0
					CHANNELS 6 Xposition Yposition Zposition Zrotation Xrotation Yrotation 
					JOINT Toes_R
					{
						OFFSET -11.7543 0.0 0.0
						CHANNELS 6 Xposition Yposition Zposition Zrotation Xrotation Yrotation 
						End Site
						{
							OFFSET 0.0 0.0 0.0
						}
					}
				}
			}
		}
	}
}
MOTION
Frames:	9
Frame Time:	0.0333333
0.000000 0.000000 0.000000 0.000000 0.000000 -0.000000 -2.117140 91.751900 -1.351120 87.744000 -3.861980 5.602570 15.735700 0.000005 -0.000001 66.328300 85.467900 -63.248800 8.984550 -0.406207 -0.000000 0.648290 -3.829150 6.177910 16.377300 -0.000001 -0.000001 7.173490 -1.633700 -0.390275 6.456720 -0.000001 -0.000000 6.590110 0.942839 5.120080 12.994200 -0.242716 4.980390 -86.534600 -8.232270 -67.075100 5.348090 -0.000007 -0.000001 -63.525900 -44.901900 -94.134700 24.328600 0.000019 0.000005 2.831790 0.955965 -71.361000 22.291600 -0.000001 0.000005 14.910600 5.605010 -11.646500 12.994500 -0.242716 -4.980390 89.403400 1.526170 -68.644900 -5.348130 -0.000001 -0.000004 -26.941200 75.236300 -20.759700 -24.328900 0.000322 -0.000009 20.214900 2.521610 -83.187500 -22.291500 -0.000108 -0.000004 37.296800 5.659770 -26.208200 -2.192480 -6.469440 -0.000000 -167.564000 -15.303700 0.538965 39.081100 -0.000007 -0.000012 -0.204831 0.497812 22.365700 40.985400 -0.000006 -0.000013 -6.929170 2.184880 -64.970800 11.754300 -0.000000 0.000003 -0.000038 -0.000440 -16.594700 -2.192510 6.469440 -0.000001 174.560000 17.522900 -179.491000 -39.081100 -0.002282 -0.040193 -0.115149 0.297437 21.717100 -40.985400 0.000008 0.000006 -3.866820 3.556060 -64.843100 -11.754300 -0.000006 -0.000006 -0.006185 -0.072507 -19.524100
0.000000 0.000000 0.000000 0.000000 0.000000 -0.000000 -2.118040 91.747900 -1.304520 87.744600 -3.830410 5.558110 15.735700 0.000005 -0.000001 66.205300 85.475500 -63.118700 8.984550 -0.406207 -0.000000 0.627133 -3.841860 6.191600 16.377300 -0.000001 -0.000001 7.158290 -1.638810 -0.365259 6.456720 -0.000001 -0.000000 6.615440 0.927267 5.119310 12.994200 -0.242716 4.980390 -86.537900 -8.215130 -67.052300 5.348090 -0.000007 -0.000001 -63.662100 -44.829200 -94.230100 24.328600 0.000019 0.000005 2.803100 0.950853 -71.277000 22.291600 -0.000001 0.000005 14.926300 5.605730 -11.690700 12.994500 -0.242716 -4.980390 89.398400 1.539430 -68.651800 -5.348130 -0.000001 -0.000004 -27.363200 75.118000 -20.321400 -24.328900 0.000322 -0.000009 20.162800 2.498030 -83.231800 -22.291500 -0.000108 -0.000004 36.999800 5.659470 -26.243500 -2.192480 -6.469440 -0.000000 -167.554000 -15.334600 0.531341 39.081100 -0.000007 -0.000012 -0.205035 0.498602 22.353800 40.985400 -0.000006 -0.000013 -6.930590 2.253520 -64.989100 11.754300 -0.000000 0.000003 -0.000035 -0.000410 -16.593600 -2.192510 6.469440 -0.000001 174.578000 17.526600 -179.517000 -39.081100 -0.002282 -0.040193 -0.113537 0.292999 21.743400 -40.985400 0.000008 0.000006 -3.819680 3.501740 -64.895200 -11.754300 -0.000006 -0.000006 -0.006427 -0.074662 -19.612100
0.000000 0.000000 0.000000 0.000000 0.000000 -0.000000 -2.127430 91.749100 -1.255320 87.740300 -3.782100 5.550600 15.735700 0.000005 -0.000001 66.167000 85.477300 -63.079600 8.984550 -0.406207 -0.000000 0.621486 -3.846100 6.193050 16.377300 -0.000001 -0.000001 7.175150 -1.666290 -0.369202 6.456720 -0.000001 -0.000000 6.577550 0.899257 5.190010 12.994200 -0.242716 4.980390 -86.529000 -8.229910 -67.036200 5.348090 -0.000007 -0.000001 -63.714400 -44.816800 -94.239800 24.328600 0.000019 0.000005 2.838890 0.967568 -71.194600 22.291600 -0.000001 0.000005 14.909800 5.605650 -11.686100 12.994500 -0.242716 -4.980390 89.388200 1.562780 -68.619100 -5.348130 -0.000001 -0.000004 -27.539500 75.050700 -20.110200 -24.328900 0.000322 -0.000009 20.227200 2.478160 -83.308100 -22.291500 -0.000108 -0.000004 36.862600 5.659930 -26.191200 -2.192480 -6.469440 -0.000000 -167.517000 -15.390000 0.583603 39.081100 -0.000007 -0.000012 -0.206501 0.503504 22.300200 40.985400 -0.000006 -0.000013 -6.927820 2.362040 -64.982300 11.754300 -0.000000 0.000003 -0.000032 -0.000387 -16.592600 -2.192510 6.469440 -0.000001 174.577000 17.538900 -179.458000 -39.081100 -0.002282 -0.040193 -0.112500 0.290997 21.702800 -40.985400 0.000008 0.000006 -3.807360 3.456080 -64.919500 -11.754300 -0.000006 -0.000006 -0.006452 -0.074891 -19.621400
0.000000 0.000000 0.000000 0.000000 0.000000 -0.000000 -2.135910 91.745900 -1.190510 87.751200 -3.706370 5.503070 15.735700 0.000005 -0.000001 65.806800 85.480500 -62.716500 8.984550 -0.406207 -0.000000 0.594053 -3.896370 6.198340 16.377300 -0.000001 -0.000001 7.135720 -1.691190 -0.393907 6.456720 -0.000001 -0.000000 6.607980 0.832558 5.187600 12.994200 -0.242716 4.980390 -86.537800 -8.188410 -66.985000 5.348090 -0.000007 -0.000001 -63.666000 -44.853400 -94.182700 24.328600 0.000019 0.000005 2.802220 0.958681 -71.128200 22.291600 -0.000001 0.000005 14.903900 5.604500 -11.615000 12.994500 -0.242716 -4.980390 89.393700 1.550560 -68.640800 -5.348130 -0.000001 -0.000004 -27.453800 75.035400 -20.203500 -24.328900 0.000322 -0.000009 20.249500 2.482350 -83.304900 -22.291500 -0.000108 -0.000004 36.813500 5.660530 -26.121600 -2.192480 -6.469440 -0.000000 -167.554000 -15.314300 0.548885 39.081100 -0.000007 -0.000012 -0.205276 0.500613 22.296300 40.985400 -0.000006 -0.000013 -6.932780 2.343120 -65.010500 11.754300 -0.000000 0.000003 -0.000031 -0.000373 -16.592100 -2.192510 6.469440 -0.000001 174.539000 17.634100 -179.424000 -39.081100 -0.002282 -0.040193 -0.115655 0.299436 21.669200 -40.985400 0.000008 0.000006 -3.843110 3.501070 -64.951000 -11.754300 -0.000006 -0.000006 -0.006275 -0.073315 -19.557100
0.000000 0.000000 0.000000 0.000000 0.000000 -0.000000 -2.152630 91.748300 -1.130810 87.744100 -3.622470 5.504350 15.735700 0.000005 -0.000001 65.893700 85.484400 -62.808300 8.984550 -0.406207 -0.000000 0.591796 -3.880390 6.188330 16.377300 -0.000001 -0.000001 7.128160 -1.700880 -0.364783 6.456720 -0.000001 -0.000000 6.573150 0.819342 5.198550 12.994200 -0.242716 4.980390 -86.527300 -8.226250 -67.017400 5.348090 -0.000007 -0.000001 -63.641300 -44.906100 -94.097400 24.328600 0.000019 0.000005 2.892390 0.991992 -71.085500 22.291600 -0.000001 0.000005 14.951800 5.604570 -11.619400 12.994500 -0.242716 -4.980390 89.382400 1.575340 -68.590500 -5.348130 -0.000001 -0.000004 -27.376300 75.071700 -20.260600 -24.328900 0.000322 -0.000009 20.233800 2.477280 -83.312900 -22.291500 -0.000108 -0.000004 36.812900 5.660890 -26.079600 -2.192480 -6.469440 -0.000000 -167.525000 -15.252100 0.622254 39.081100 -0.000007 -0.000012 -0.204769 0.501395 22.215400 40.985400 -0.000006 -0.000013 -6.956130 2.373630 -65.007300 11.754300 -0.000000 0.000003 -0.000031 -0.000373 -16.592100 -2.192510 6.469440 -0.000001 174.531000 17.698100 -179.315000 -39.081100 -0.002282 -0.040193 -0.115684 0.300940 21.575800 -40.985400 0.000008 0.000006 -3.943100 3.488830 -64.949100 -11.754300 -0.000006 -0.000006 -0.006115 -0.071874 -19.498400
0.000000 0.000000 0.000000 0.000000 0.000000 -0.000000 -2.173720 91.733900 -1.096590 87.694700 -3.596030 5.469740 15.735700 0.000005 -0.000001 65.950500 85.493800 -62.856600 8.984550 -0.406207 -0.000000 0.578136 -3.865470 6.204650 16.377300 -0.000001 -0.000001 7.137360 -1.738440 -0.359974 6.456720 -0.000001 -0.000000 6.584490 0.745889 5.205220 12.994200 -0.242716 4.980390 -86.524900 -8.221250 -66.990300 5.348090 -0.000007 -0.000001 -63.598100 -44.928000 -94.033100 24.328600 0.000019 0.000005 2.705190 0.932907 -70.986600 22.291600 -0.000001 0.000005 14.969800 5.606180 -11.718500 12.994500 -0.242716 -4.980390 89.385800 1.567240 -68.596500 -5.348130 -0.000001 -0.000004 -27.298300 75.078400 -20.364800 -24.328900 0.000322 -0.000009 20.135100 2.477300 -83.277500 -22.291500 -0.000108 -0.000004 36.762500 5.660040 -26.178800 -2.192480 -6.469440 -0.000000 -167.479000 -15.201000 0.539284 39.081100 -0.000007 -0.000012 -0.207393 0.504839 22.333700 40.985400 -0.000006 -0.000013 -6.976830 2.336550 -65.081300 11.754300 -0.000000 0.000003 -0.000038 -0.000450 -16.595100 -2.192510 6.469440 -0.000001 174.590000 17.738100 -179.339000 -39.081100 -0.002282 -0.040193 -0.116920 0.303296 21.625400 -40.985400 0.000008 0.000006 -3.937210 3.480110 -65.004800 -11.754300 -0.000006 -0.000006 -0.006206 -0.072697 -19.531900
0.000000 0.000000 0.000000 0.000000 0.000000 -0.000000 -2.190300 91.736500 -1.048840 87.676700 -3.562410 5.477170 15.735700 0.000005 -0.000001 66.169700 85.502100 -63.078100 8.984550 -0.406207 -0.000000 0.575781 -3.827180 6.199790 16.377300 -0.000001 -0.000001 7.162500 -1.750890 -0.356722 6.456720 -0.000001 -0.000000 6.661030 0.716957 5.267750 12.994200 -0.242716 4.980390 -86.518600 -8.238300 -66.995300 5.348090 -0.000007 -0.000001 -63.593600 -44.897600 -93.976400 24.328600 0.000019 0.000005 2.843950 0.983975 -70.930300 22.291600 -0.000001 0.000005 14.966000 5.605090 -11.651300 12.994500 -0.242716 -4.980390 89.387800 1.564410 -68.626600 -5.348130 -0.000001 -0.000004 -27.427100 75.056800 -20.219000 -24.328900 0.000322 -0.000009 20.113900 2.456680 -83.325300 -22.291500 -0.000108 -0.000004 36.696200 5.660040 -26.178400 -2.192480 -6.469440 -0.000000 -167.423000 -15.205000 0.621620 39.081100 -0.000007 -0.000012 -0.208250 0.508749 22.261500 40.985400 -0.000006 -0.000013 -6.993300 2.401750 -65.074700 11.754300 -0.000000 0.000003 -0.000033 -0.000390 -16.592800 -2.192510 6.469440 -0.000001 174.616000 17.765300 -179.274000 -39.081100 -0.002282 -0.040193 -0.114090 0.296592 21.596600 -40.985400 0.000008 0.000006 -3.839260 3.447100 -65.040700 -11.754300 -0.000006 -0.000006 -0.006216 -0.072784 -19.535500
0.000000 0.000000 0.000000 0.000000 0.000000 -0.000000 -2.202480 91.718400 -0.994147 87.720400 -3.440450 5.511090 15.735700 0.000005 -0.000001 65.948400 85.494600 -62.880100 8.984550 -0.406207 -0.000000 0.575569 -3.863610 6.153370 16.377300 -0.000001 -0.000001 7.234850 -1.800750 -0.327602 6.456720 -0.000001 -0.000000 6.769390 0.682608 5.239030 12.994200 -0.242716 4.980390 -86.524300 -8.228110 -67.003600 5.348090 -0.000007 -0.000001 -63.571300 -44.850300 -93.893300 24.328600 0.000019 0.000005 2.797430 0.972182 -70.851200 22.291600 -0.000001 0.000005 14.968100 5.605640 -11.685300 12.994500 -0.242716 -4.980390 89.389600 1.559950 -68.626900 -5.348130 -0.000001 -0.000004 -27.401300 75.039800 -20.263900 -24.328900 0.000322 -0.000009 20.075000 2.461710 -83.297800 -22.291500 -0.000108 -0.000004 36.681900 5.659350 -26.257200 -2.192480 -6.469440 -0.000000 -167.478000 -15.042500 0.622973 39.081100 -0.000007 -0.000012 -0.208015 0.506493 22.328100 40.985400 -0.000006 -0.000013 -7.004990 2.372620 -65.142000 11.754300 -0.000000 0.000003 -0.000032 -0.000385 -16.592600 -2.192510 6.469440 -0.000001 174.520000 17.822500 -179.211000 -39.081100 -0.002282 -0.040193 -0.118457 0.306440 21.672400 -40.985400 0.000008 0.000006 -3.956250 3.460370 -65.125400 -11.754300 -0.000006 -0.000006 -0.006214 -0.072769 -19.534900
0.000000 0.000000 0.000000 0.000000 0.000000 -0.000000 -2.221530 91.717000 -0.950525 87.708200 -3.317460 5.563550 15.735700 0.000005 -0.000001 65.911100 85.478000 -62.854400 8.984550 -0.406207 -0.000000 0.603637 -3.881050 6.131180 16.377300 -0.000001 -0.000001 7.304180 -1.847680 -0.328300 6.456720 -0.000001 -0.000000 6.902210 0.645689 5.262510 12.994200 -0.242716 4.980390 -86.516200 -8.238600 -66.982000 5.348090 -0.000007 -0.000001 -63.588000 -44.753600 -93.866100 24.328600 0.000019 0.000005 2.874560 1.004300 -70.757700 22.291600 -0.000001 0.000005 15.000600 5.604920 -11.641000 12.994500 -0.242716 -4.980390 89.373800 1.596520 -68.579700 -5.348130 -0.000001 -0.000004 -27.319400 75.007100 -20.356800 -24.328900 0.000322 -0.000009 20.057100 2.461610 -83.291700 -22.291500 -0.000108 -0.000004 36.674000 5.659170 -26.277800 -2.192480 -6.469440 -0.000000 -167.434000 -15.001600 0.681575 39.081100 -0.000007 -0.000012 -0.210022 0.511769 22.312800 40.985400 -0.000006 -0.000013 -7.010130 2.438640 -65.137400 11.754300 -0.000000 0.000003 -0.000038 -0.000444 -16.594800 -2.192510 6.469440 -0.000001 174.544000 17.877600 -179.126000 -39.081100 -0.002282 -0.040193 -0.112845 0.291764 21.709600 -40.985400 0.000008 0.000006 -3.780130 3.352670 -65.208700 -11.754300 -0.000006 -0.000006 -0.006226 -0.072876 -19.539200
